name C:\Users\u0101727\Documents\MyRepositories\upper-imu-dc\Results\main_tracking\Case_10\kinematics.mot
datacolumns 10
datarows 33
range 5.00000000 5.32000000
endheader 
time	clav_prot	clav_elev	scapula_abduction	scapula_elevation	scapula_upward_rot	scapula_winging	plane_elv	shoulder_elv	axial_rot	
          5.00000000	        -27.86637448	          4.70707731	         -6.39937619	         -3.04775220	         38.79563033	         -3.56548655	         73.34583294	         47.41025018	        -26.44620894	
          5.01000000	        -27.71598913	          4.46139729	         -6.50869490	         -3.13048860	         38.22299603	         -3.37289905	         73.07494499	         46.99280174	        -26.10632772	
          5.02000000	        -27.57319101	          4.21505685	         -6.62452777	         -3.21367839	         37.65664424	         -3.18081919	         72.80783499	         46.58083059	        -25.71769916	
          5.03000000	        -27.43566874	          3.97038292	         -6.74147225	         -3.29599139	         37.09939340	         -2.99003612	         72.54250708	         46.17120413	        -25.26327578	
          5.04000000	        -27.30038054	          3.72837922	         -6.85259660	         -3.37699045	         36.55387006	         -2.80098582	         72.27471267	         45.76050827	        -24.72693031	
          5.05000000	        -27.16421876	          3.48860639	         -6.95108416	         -3.45716018	         36.02183588	         -2.61365380	         71.99846352	         45.34613352	        -24.10361309	
          5.06000000	        -27.02484953	          3.24958382	         -7.03214230	         -3.53760165	         35.50376734	         -2.42765475	         71.70748365	         44.92715968	        -23.40583166	
          5.07000000	        -26.88139648	          3.00955073	         -7.09440079	         -3.61952090	         34.99888231	         -2.24246114	         71.39714336	         44.50463312	        -22.66318340	
          5.08000000	        -26.73465623	          2.76726077	         -7.14017382	         -3.70372866	         34.50559618	         -2.05767570	         71.06602827	         44.08109422	        -21.91528836	
          5.09000000	        -26.58672251	          2.52246342	         -7.17444404	         -3.79036334	         34.02217858	         -1.87321589	         70.71635523	         43.65956065	        -21.20158129	
          5.10000000	        -26.44015820	          2.27587785	         -7.20298528	         -3.87894144	         33.54730819	         -1.68932519	         70.35296608	         43.24241100	        -20.55245310	
          5.11000000	        -26.29704294	          2.02872252	         -7.23037344	         -3.96867776	         33.08031829	         -1.50641882	         69.98133836	         42.83060688	        -19.98467624	
          5.12000000	        -26.15825839	          1.78208420	         -7.25862583	         -4.05888628	         32.62110271	         -1.32485604	         69.60555746	         42.42347627	        -19.50119473	
          5.13000000	        -26.02325800	          1.53648329	         -7.28691858	         -4.14923337	         32.16979525	         -1.14476420	         69.22721983	         42.01901317	        -19.09319139	
          5.14000000	        -25.89037515	          1.29188035	         -7.31242629	         -4.23969086	         31.72637780	         -0.96600639	         68.84573315	         41.61449981	        -18.74252429	
          5.15000000	        -25.75753918	          1.04812606	         -7.33196758	         -4.33019348	         31.29032537	         -0.78830147	         68.45969059	         41.20727546	        -18.42488524	
          5.16000000	        -25.62314050	          0.80562540	         -7.34389032	         -4.42015828	         30.86034332	         -0.61142480	         68.06840517	         40.79552439	        -18.11547246	
          5.17000000	        -25.48672952	          0.56588886	         -7.34950570	         -4.50809607	         30.43425824	         -0.43538871	         67.67267972	         40.37890686	        -17.79729320	
          5.18000000	        -25.34926409	          0.33170031	         -7.35343150	         -4.59151573	         30.00916110	         -0.26052878	         67.27441086	         39.95876753	        -17.46875950	
          5.19000000	        -25.21275948	          0.10679197	         -7.36253189	         -4.66721027	         29.58186134	         -0.08747192	         66.87528686	         39.53771805	        -17.14576855	
          5.20000000	        -25.07945118	         -0.10488280	         -7.38376045	         -4.73185483	         29.14955287	          0.08299427	         66.47528307	         39.11867957	        -16.85596021	
          5.21000000	        -24.95083787	         -0.30001696	         -7.42181232	         -4.78270555	         28.71043873	          0.25010143	         66.07174211	         38.70377921	        -16.62710551	
          5.22000000	        -24.82705192	         -0.47664274	         -7.47762859	         -4.81814815	         28.26406271	          0.41326601	         65.65953370	         38.29356348	        -16.47418321	
          5.23000000	        -24.70685402	         -0.63444029	         -7.54837585	         -4.83793676	         27.81125837	          0.57218772	         65.23225404	         37.88679888	        -16.38981260	
          5.24000000	        -24.58826325	         -0.77463881	         -7.62883521	         -4.84311861	         27.35382045	          0.72685857	         64.78392781	         37.48085136	        -16.34145639	
          5.25000000	        -24.46955127	         -0.89963976	         -7.71353501	         -4.83575701	         26.89410824	          0.87749529	         64.31046796	         37.07242432	        -16.27688290	
          5.26000000	        -24.35017323	         -1.01254825	         -7.79871414	         -4.81859512	         26.43475183	          1.02443450	         63.81031975	         36.65835919	        -16.13662308	
          5.27000000	        -24.23125765	         -1.11677004	         -7.88340419	         -4.79475954	         25.97848772	          1.16804510	         63.28414608	         36.23626898	        -15.86916370	
          5.28000000	        -24.11547584	         -1.21575826	         -7.96936077	         -4.76754028	         25.52803802	          1.30870014	         62.73384828	         35.80491492	        -15.44338459	
          5.29000000	        -24.00634577	         -1.31291016	         -8.05999938	         -4.74023481	         25.08594648	          1.44681311	         62.16140835	         35.36435306	        -14.85440757	
          5.30000000	        -23.90725946	         -1.41151520	         -8.15886651	         -4.71600069	         24.65436542	          1.58289178	         61.56805097	         34.91590796	        -14.12203288	
          5.31000000	        -23.82071061	         -1.51457848	         -8.26848132	         -4.69762719	         24.23484947	          1.71753283	         60.95405817	         34.46201753	        -13.28363399	
          5.32000000	        -23.74811048	         -1.62439460	         -8.39020752	         -4.68717213	         23.82823015	          1.85130749	         60.31923808	         34.00597445	        -12.38482991	
